# Blender v2.91.0 OBJ File: 'Cup.blend'
# www.blender.org
mtllib CupNoBase.mtl
o Cylinder
v 0.000000 -2.684772 -1.000000
v 0.000000 2.684772 -1.000000
v 0.195090 -2.684772 -0.980785
v 0.195090 2.684772 -0.980785
v 0.382683 -2.684772 -0.923880
v 0.382683 2.684772 -0.923880
v 0.555570 -2.684772 -0.831470
v 0.555570 2.684772 -0.831470
v 0.707107 -2.684772 -0.707107
v 0.707107 2.684772 -0.707107
v 0.831470 -2.684772 -0.555570
v 0.831470 2.684772 -0.555570
v 0.923880 -2.684772 -0.382683
v 0.923880 2.684772 -0.382683
v 0.980785 -2.684772 -0.195090
v 0.980785 2.684772 -0.195090
v 1.000000 -2.684772 -0.000000
v 1.000000 2.684772 -0.000000
v 0.980785 -2.684772 0.195090
v 0.980785 2.684772 0.195090
v 0.923880 -2.684772 0.382683
v 0.923880 2.684772 0.382683
v 0.831470 -2.684772 0.555570
v 0.831470 2.684772 0.555570
v 0.707107 -2.684772 0.707107
v 0.707107 2.684772 0.707107
v 0.555570 -2.684772 0.831470
v 0.555570 2.684772 0.831470
v 0.382683 -2.684772 0.923880
v 0.382683 2.684772 0.923880
v 0.195090 -2.684772 0.980785
v 0.195090 2.684772 0.980785
v -0.000000 -2.684772 1.000000
v -0.000000 2.684772 1.000000
v -0.195091 -2.684772 0.980785
v -0.195091 2.684772 0.980785
v -0.382684 -2.684772 0.923879
v -0.382684 2.684772 0.923879
v -0.555571 -2.684772 0.831469
v -0.555571 2.684772 0.831469
v -0.707107 -2.684772 0.707106
v -0.707107 2.684772 0.707106
v -0.831470 -2.684772 0.555570
v -0.831470 2.684772 0.555570
v -0.923880 -2.684772 0.382683
v -0.923880 2.684772 0.382683
v -0.980785 -2.684772 0.195089
v -0.980785 2.684772 0.195089
v -1.000000 -2.684772 -0.000001
v -1.000000 2.684772 -0.000001
v -0.980785 -2.684772 -0.195091
v -0.980785 2.684772 -0.195091
v -0.923879 -2.684772 -0.382684
v -0.923879 2.684772 -0.382684
v -0.831469 -2.684772 -0.555571
v -0.831469 2.684772 -0.555571
v -0.707106 -2.684772 -0.707108
v -0.707106 2.684772 -0.707108
v -0.555569 -2.684772 -0.831470
v -0.555569 2.684772 -0.831470
v -0.382682 -2.684772 -0.923880
v -0.382682 2.684772 -0.923880
v -0.195089 -2.684772 -0.980786
v -0.195089 2.684772 -0.980786
vt 1.000000 0.500000
vt 1.000000 1.000000
vt 0.968750 1.000000
vt 0.968750 0.500000
vt 0.937500 1.000000
vt 0.937500 0.500000
vt 0.906250 1.000000
vt 0.906250 0.500000
vt 0.875000 1.000000
vt 0.875000 0.500000
vt 0.843750 1.000000
vt 0.843750 0.500000
vt 0.812500 1.000000
vt 0.812500 0.500000
vt 0.781250 1.000000
vt 0.781250 0.500000
vt 0.750000 1.000000
vt 0.750000 0.500000
vt 0.718750 1.000000
vt 0.718750 0.500000
vt 0.687500 1.000000
vt 0.687500 0.500000
vt 0.656250 1.000000
vt 0.656250 0.500000
vt 0.625000 1.000000
vt 0.625000 0.500000
vt 0.593750 1.000000
vt 0.593750 0.500000
vt 0.562500 1.000000
vt 0.562500 0.500000
vt 0.531250 1.000000
vt 0.531250 0.500000
vt 0.500000 1.000000
vt 0.500000 0.500000
vt 0.468750 1.000000
vt 0.468750 0.500000
vt 0.437500 1.000000
vt 0.437500 0.500000
vt 0.406250 1.000000
vt 0.406250 0.500000
vt 0.375000 1.000000
vt 0.375000 0.500000
vt 0.343750 1.000000
vt 0.343750 0.500000
vt 0.312500 1.000000
vt 0.312500 0.500000
vt 0.281250 1.000000
vt 0.281250 0.500000
vt 0.250000 1.000000
vt 0.250000 0.500000
vt 0.218750 1.000000
vt 0.218750 0.500000
vt 0.187500 1.000000
vt 0.187500 0.500000
vt 0.156250 1.000000
vt 0.156250 0.500000
vt 0.125000 1.000000
vt 0.125000 0.500000
vt 0.093750 1.000000
vt 0.093750 0.500000
vt 0.062500 1.000000
vt 0.062500 0.500000
vt 0.296822 0.485388
vt 0.250000 0.490000
vt 0.203179 0.485389
vt 0.158156 0.471731
vt 0.116663 0.449553
vt 0.080295 0.419706
vt 0.050447 0.383337
vt 0.028269 0.341844
vt 0.014612 0.296822
vt 0.010000 0.250000
vt 0.014611 0.203179
vt 0.028269 0.158156
vt 0.050447 0.116663
vt 0.080294 0.080294
vt 0.116663 0.050447
vt 0.158156 0.028269
vt 0.203178 0.014612
vt 0.250000 0.010000
vt 0.296822 0.014612
vt 0.341844 0.028269
vt 0.383337 0.050447
vt 0.419706 0.080294
vt 0.449553 0.116663
vt 0.471731 0.158156
vt 0.485388 0.203178
vt 0.490000 0.250000
vt 0.485388 0.296822
vt 0.471731 0.341844
vt 0.449553 0.383337
vt 0.419706 0.419706
vt 0.383337 0.449553
vt 0.341844 0.471731
vt 0.031250 1.000000
vt 0.031250 0.500000
vt 0.000000 1.000000
vt 0.000000 0.500000
vt 0.750000 0.490000
vt 0.796822 0.485388
vt 0.841844 0.471731
vt 0.883337 0.449553
vt 0.919706 0.419706
vt 0.949553 0.383337
vt 0.971731 0.341844
vt 0.985388 0.296822
vt 0.990000 0.250000
vt 0.985388 0.203178
vt 0.971731 0.158156
vt 0.949553 0.116663
vt 0.919706 0.080294
vt 0.883337 0.050447
vt 0.841844 0.028269
vt 0.796822 0.014612
vt 0.750000 0.010000
vt 0.703178 0.014612
vt 0.658156 0.028269
vt 0.616663 0.050447
vt 0.580294 0.080294
vt 0.550447 0.116663
vt 0.528269 0.158156
vt 0.514611 0.203179
vt 0.510000 0.250000
vt 0.514612 0.296822
vt 0.528269 0.341844
vt 0.550447 0.383337
vt 0.580295 0.419706
vt 0.616663 0.449553
vt 0.658156 0.471731
vt 0.703179 0.485389
vn 0.0000 -0.6857 -0.7279
vn 0.0000 0.6857 -0.7279
vn 0.1420 0.6857 -0.7139
vn 0.1420 -0.6857 -0.7139
vn 0.2785 0.6857 -0.6725
vn 0.2785 -0.6857 -0.6725
vn 0.4044 0.6857 -0.6052
vn 0.4044 -0.6857 -0.6052
vn 0.5147 0.6857 -0.5147
vn 0.5147 -0.6857 -0.5147
vn 0.6052 0.6857 -0.4044
vn 0.6052 -0.6857 -0.4044
vn 0.6725 0.6857 -0.2785
vn 0.6725 -0.6857 -0.2785
vn 0.7139 0.6857 -0.1420
vn 0.7139 -0.6857 -0.1420
vn 0.7279 0.6857 0.0000
vn 0.7279 -0.6857 0.0000
vn 0.7139 0.6857 0.1420
vn 0.7139 -0.6857 0.1420
vn 0.6725 0.6857 0.2785
vn 0.6725 -0.6857 0.2785
vn 0.6052 0.6857 0.4044
vn 0.6052 -0.6857 0.4044
vn 0.5147 0.6857 0.5147
vn 0.5147 -0.6857 0.5147
vn 0.4044 0.6857 0.6052
vn 0.4044 -0.6857 0.6052
vn 0.2785 0.6857 0.6725
vn 0.2785 -0.6857 0.6725
vn 0.1420 0.6857 0.7139
vn 0.1420 -0.6857 0.7139
vn 0.0000 0.6857 0.7279
vn 0.0000 -0.6857 0.7279
vn -0.1420 0.6857 0.7139
vn -0.1420 -0.6857 0.7139
vn -0.2785 0.6857 0.6725
vn -0.2785 -0.6857 0.6725
vn -0.4044 0.6857 0.6052
vn -0.4044 -0.6857 0.6052
vn -0.5147 0.6857 0.5147
vn -0.5147 -0.6857 0.5147
vn -0.6052 0.6857 0.4044
vn -0.6052 -0.6857 0.4044
vn -0.6725 0.6857 0.2785
vn -0.6725 -0.6857 0.2785
vn -0.7139 0.6857 0.1420
vn -0.7139 -0.6857 0.1420
vn -0.7279 0.6857 0.0000
vn -0.7279 -0.6857 0.0000
vn -0.7139 0.6857 -0.1420
vn -0.7139 -0.6857 -0.1420
vn -0.6725 0.6857 -0.2785
vn -0.6725 -0.6857 -0.2785
vn -0.6052 0.6857 -0.4044
vn -0.6052 -0.6857 -0.4044
vn -0.5147 0.6857 -0.5147
vn -0.5147 -0.6857 -0.5147
vn -0.4044 0.6857 -0.6052
vn -0.4044 -0.6857 -0.6052
vn -0.2785 0.6857 -0.6725
vn -0.2785 -0.6857 -0.6725
vn -0.1420 0.6857 -0.7139
vn -0.1420 -0.6857 -0.7139
usemtl None
s 1
f 1/1/1 2/2/2 4/3/3 3/4/4
f 3/4/4 4/3/3 6/5/5 5/6/6
f 5/6/6 6/5/5 8/7/7 7/8/8
f 7/8/8 8/7/7 10/9/9 9/10/10
f 9/10/10 10/9/9 12/11/11 11/12/12
f 11/12/12 12/11/11 14/13/13 13/14/14
f 13/14/14 14/13/13 16/15/15 15/16/16
f 15/16/16 16/15/15 18/17/17 17/18/18
f 17/18/18 18/17/17 20/19/19 19/20/20
f 19/20/20 20/19/19 22/21/21 21/22/22
f 21/22/22 22/21/21 24/23/23 23/24/24
f 23/24/24 24/23/23 26/25/25 25/26/26
f 25/26/26 26/25/25 28/27/27 27/28/28
f 27/28/28 28/27/27 30/29/29 29/30/30
f 29/30/30 30/29/29 32/31/31 31/32/32
f 31/32/32 32/31/31 34/33/33 33/34/34
f 33/34/34 34/33/33 36/35/35 35/36/36
f 35/36/36 36/35/35 38/37/37 37/38/38
f 37/38/38 38/37/37 40/39/39 39/40/40
f 39/40/40 40/39/39 42/41/41 41/42/42
f 41/42/42 42/41/41 44/43/43 43/44/44
f 43/44/44 44/43/43 46/45/45 45/46/46
f 45/46/46 46/45/45 48/47/47 47/48/48
f 47/48/48 48/47/47 50/49/49 49/50/50
f 49/50/50 50/49/49 52/51/51 51/52/52
f 51/52/52 52/51/51 54/53/53 53/54/54
f 53/54/54 54/53/53 56/55/55 55/56/56
f 55/56/56 56/55/55 58/57/57 57/58/58
f 57/58/58 58/57/57 60/59/59 59/60/60
f 59/60/60 60/59/59 62/61/61 61/62/62
f 4/63/3 2/64/2 64/65/63 62/66/61 60/67/59 58/68/57 56/69/55 54/70/53 52/71/51 50/72/49 48/73/47 46/74/45 44/75/43 42/76/41 40/77/39 38/78/37 36/79/35 34/80/33 32/81/31 30/82/29 28/83/27 26/84/25 24/85/23 22/86/21 20/87/19 18/88/17 16/89/15 14/90/13 12/91/11 10/92/9 8/93/7 6/94/5
f 61/62/62 62/61/61 64/95/63 63/96/64
f 63/96/64 64/95/63 2/97/2 1/98/1
f 1/99/1 3/100/4 5/101/6 7/102/8 9/103/10 11/104/12 13/105/14 15/106/16 17/107/18 19/108/20 21/109/22 23/110/24 25/111/26 27/112/28 29/113/30 31/114/32 33/115/34 35/116/36 37/117/38 39/118/40 41/119/42 43/120/44 45/121/46 47/122/48 49/123/50 51/124/52 53/125/54 55/126/56 57/127/58 59/128/60 61/129/62 63/130/64
o Cone
v 0.000000 -1.000000 -1.000000
v 0.195090 -1.000000 -0.980785
v 0.382683 -1.000000 -0.923880
v 0.555570 -1.000000 -0.831470
v 0.707107 -1.000000 -0.707107
v 0.831470 -1.000000 -0.555570
v 0.923880 -1.000000 -0.382683
v 0.980785 -1.000000 -0.195090
v 1.000000 -1.000000 -0.000000
v 0.980785 -1.000000 0.195090
v 0.923880 -1.000000 0.382683
v 0.831470 -1.000000 0.555570
v 0.707107 -1.000000 0.707107
v 0.555570 -1.000000 0.831470
v 0.382683 -1.000000 0.923880
v 0.195090 -1.000000 0.980785
v -0.000000 -1.000000 1.000000
v -0.195091 -1.000000 0.980785
v -0.382684 -1.000000 0.923879
v -0.555571 -1.000000 0.831469
v -0.707107 -1.000000 0.707106
v -0.831470 -1.000000 0.555570
v -0.923880 -1.000000 0.382683
v -0.980785 -1.000000 0.195089
v -1.000000 -1.000000 -0.000001
v -0.980785 -1.000000 -0.195091
v -0.923879 -1.000000 -0.382684
v -0.831469 -1.000000 -0.555571
v -0.707106 -1.000000 -0.707108
v -0.555569 -1.000000 -0.831470
v -0.382682 -1.000000 -0.923880
v -0.195089 -1.000000 -0.980786
v 0.000000 1.000000 0.000000
vt 0.250000 0.490000
vt 0.250000 0.250000
vt 0.296822 0.485388
vt 0.341844 0.471731
vt 0.383337 0.449553
vt 0.419706 0.419706
vt 0.449553 0.383337
vt 0.471731 0.341844
vt 0.485388 0.296822
vt 0.490000 0.250000
vt 0.485388 0.203178
vt 0.471731 0.158156
vt 0.449553 0.116663
vt 0.419706 0.080294
vt 0.383337 0.050447
vt 0.341844 0.028269
vt 0.296822 0.014612
vt 0.250000 0.010000
vt 0.203178 0.014612
vt 0.158156 0.028269
vt 0.116663 0.050447
vt 0.080294 0.080294
vt 0.050447 0.116663
vt 0.028269 0.158156
vt 0.014611 0.203179
vt 0.010000 0.250000
vt 0.014612 0.296822
vt 0.028269 0.341844
vt 0.050447 0.383337
vt 0.080295 0.419706
vt 0.116663 0.449553
vt 0.158156 0.471731
vt 0.750000 0.490000
vt 0.796822 0.485388
vt 0.841844 0.471731
vt 0.883337 0.449553
vt 0.919706 0.419706
vt 0.949553 0.383337
vt 0.971731 0.341844
vt 0.985388 0.296822
vt 0.990000 0.250000
vt 0.985388 0.203178
vt 0.971731 0.158156
vt 0.949553 0.116663
vt 0.919706 0.080294
vt 0.883337 0.050447
vt 0.841844 0.028269
vt 0.796822 0.014612
vt 0.750000 0.010000
vt 0.703178 0.014612
vt 0.658156 0.028269
vt 0.616663 0.050447
vt 0.580294 0.080294
vt 0.550447 0.116663
vt 0.528269 0.158156
vt 0.514611 0.203179
vt 0.510000 0.250000
vt 0.514612 0.296822
vt 0.528269 0.341844
vt 0.550447 0.383337
vt 0.580295 0.419706
vt 0.616663 0.449553
vt 0.658156 0.471731
vt 0.703179 0.485389
vt 0.203179 0.485389
vn 0.0878 0.4455 -0.8910
vn 0.2599 0.4455 -0.8567
vn 0.4220 0.4455 -0.7896
vn 0.5680 0.4455 -0.6921
vn 0.6921 0.4455 -0.5680
vn 0.7896 0.4455 -0.4220
vn 0.8567 0.4455 -0.2599
vn 0.8910 0.4455 -0.0878
vn 0.8910 0.4455 0.0878
vn 0.8567 0.4455 0.2599
vn 0.7896 0.4455 0.4220
vn 0.6921 0.4455 0.5680
vn 0.5680 0.4455 0.6921
vn 0.4220 0.4455 0.7896
vn 0.2599 0.4455 0.8567
vn 0.0878 0.4455 0.8910
vn -0.0878 0.4455 0.8910
vn -0.2599 0.4455 0.8567
vn -0.4220 0.4455 0.7896
vn -0.5680 0.4455 0.6921
vn -0.6921 0.4455 0.5680
vn -0.7896 0.4455 0.4220
vn -0.8567 0.4455 0.2599
vn -0.8910 0.4455 0.0878
vn -0.8910 0.4455 -0.0878
vn -0.8567 0.4455 -0.2599
vn -0.7896 0.4455 -0.4220
vn -0.6921 0.4455 -0.5680
vn -0.5680 0.4455 -0.6921
vn -0.4220 0.4455 -0.7896
vn 0.0000 -1.0000 -0.0000
vn -0.2599 0.4455 -0.8567
vn -0.0878 0.4455 -0.8910
usemtl None
s off
f 65/131/65 97/132/65 66/133/65
f 66/133/66 97/132/66 67/134/66
f 67/134/67 97/132/67 68/135/67
f 68/135/68 97/132/68 69/136/68
f 69/136/69 97/132/69 70/137/69
f 70/137/70 97/132/70 71/138/70
f 71/138/71 97/132/71 72/139/71
f 72/139/72 97/132/72 73/140/72
f 73/140/73 97/132/73 74/141/73
f 74/141/74 97/132/74 75/142/74
f 75/142/75 97/132/75 76/143/75
f 76/143/76 97/132/76 77/144/76
f 77/144/77 97/132/77 78/145/77
f 78/145/78 97/132/78 79/146/78
f 79/146/79 97/132/79 80/147/79
f 80/147/80 97/132/80 81/148/80
f 81/148/81 97/132/81 82/149/81
f 82/149/82 97/132/82 83/150/82
f 83/150/83 97/132/83 84/151/83
f 84/151/84 97/132/84 85/152/84
f 85/152/85 97/132/85 86/153/85
f 86/153/86 97/132/86 87/154/86
f 87/154/87 97/132/87 88/155/87
f 88/155/88 97/132/88 89/156/88
f 89/156/89 97/132/89 90/157/89
f 90/157/90 97/132/90 91/158/90
f 91/158/91 97/132/91 92/159/91
f 92/159/92 97/132/92 93/160/92
f 93/160/93 97/132/93 94/161/93
f 94/161/94 97/132/94 95/162/94
f 65/163/95 66/164/95 67/165/95 68/166/95 69/167/95 70/168/95 71/169/95 72/170/95 73/171/95 74/172/95 75/173/95 76/174/95 77/175/95 78/176/95 79/177/95 80/178/95 81/179/95 82/180/95 83/181/95 84/182/95 85/183/95 86/184/95 87/185/95 88/186/95 89/187/95 90/188/95 91/189/95 92/190/95 93/191/95 94/192/95 95/193/95 96/194/95
f 95/162/96 97/132/96 96/195/96
f 96/195/97 97/132/97 65/131/97
o Cone.001
v 0.000000 2.052350 -1.583536
v 0.308932 2.052350 -1.553108
v 0.605993 2.052350 -1.462996
v 0.879765 2.052350 -1.316662
v 1.119729 2.052350 -1.119729
v 1.316662 2.052350 -0.879765
v 1.462996 2.052350 -0.605993
v 1.553108 2.052350 -0.308933
v 1.583536 2.052350 -0.000000
v 1.553109 2.052350 0.308932
v 1.462996 2.052350 0.605993
v 1.316662 2.052350 0.879765
v 1.119729 2.052350 1.119729
v 0.879765 2.052350 1.316662
v 0.605993 2.052350 1.462996
v 0.308932 2.052350 1.553109
v -0.000001 2.052350 1.583536
v -0.308933 2.052350 1.553108
v -0.605994 2.052350 1.462996
v -0.879766 2.052350 1.316661
v -1.119730 2.052350 1.119728
v -1.316662 2.052350 0.879764
v -1.462997 2.052350 0.605992
v -1.553109 2.052350 0.308931
v -1.583536 2.052350 -0.000002
v -1.553108 2.052350 -0.308934
v -1.462996 2.052350 -0.605995
v -1.316661 2.052350 -0.879767
v -1.119727 2.052350 -1.119730
v -0.879763 2.052350 -1.316663
v -0.605991 2.052350 -1.462997
v -0.308930 2.052350 -1.553109
v 0.000000 5.219421 0.000000
vt 0.250000 0.490000
vt 0.250000 0.250000
vt 0.296822 0.485388
vt 0.341844 0.471731
vt 0.383337 0.449553
vt 0.419706 0.419706
vt 0.449553 0.383337
vt 0.471731 0.341844
vt 0.485388 0.296822
vt 0.490000 0.250000
vt 0.485388 0.203178
vt 0.471731 0.158156
vt 0.449553 0.116663
vt 0.419706 0.080294
vt 0.383337 0.050447
vt 0.341844 0.028269
vt 0.296822 0.014612
vt 0.250000 0.010000
vt 0.203178 0.014612
vt 0.158156 0.028269
vt 0.116663 0.050447
vt 0.080294 0.080294
vt 0.050447 0.116663
vt 0.028269 0.158156
vt 0.014611 0.203179
vt 0.010000 0.250000
vt 0.014612 0.296822
vt 0.028269 0.341844
vt 0.050447 0.383337
vt 0.080295 0.419706
vt 0.116663 0.449553
vt 0.158156 0.471731
vt 0.750000 0.490000
vt 0.796822 0.485388
vt 0.841844 0.471731
vt 0.883337 0.449553
vt 0.919706 0.419706
vt 0.949553 0.383337
vt 0.971731 0.341844
vt 0.985388 0.296822
vt 0.990000 0.250000
vt 0.985388 0.203178
vt 0.971731 0.158156
vt 0.949553 0.116663
vt 0.919706 0.080294
vt 0.883337 0.050447
vt 0.841844 0.028269
vt 0.796822 0.014612
vt 0.750000 0.010000
vt 0.703178 0.014612
vt 0.658156 0.028269
vt 0.616663 0.050447
vt 0.580294 0.080294
vt 0.550447 0.116663
vt 0.528269 0.158156
vt 0.514611 0.203179
vt 0.510000 0.250000
vt 0.514612 0.296822
vt 0.528269 0.341844
vt 0.550447 0.383337
vt 0.580295 0.419706
vt 0.616663 0.449553
vt 0.658156 0.471731
vt 0.703179 0.485389
vt 0.203179 0.485389
vn 0.0878 0.4455 -0.8910
vn 0.2599 0.4455 -0.8567
vn 0.4220 0.4455 -0.7896
vn 0.5680 0.4455 -0.6921
vn 0.6921 0.4455 -0.5680
vn 0.7896 0.4455 -0.4220
vn 0.8567 0.4455 -0.2599
vn 0.8910 0.4455 -0.0878
vn 0.8910 0.4455 0.0878
vn 0.8567 0.4455 0.2599
vn 0.7896 0.4455 0.4220
vn 0.6921 0.4455 0.5680
vn 0.5680 0.4455 0.6921
vn 0.4220 0.4455 0.7896
vn 0.2599 0.4455 0.8567
vn 0.0878 0.4455 0.8910
vn -0.0878 0.4455 0.8910
vn -0.2599 0.4455 0.8567
vn -0.4220 0.4455 0.7896
vn -0.5680 0.4455 0.6921
vn -0.6921 0.4455 0.5680
vn -0.7896 0.4455 0.4220
vn -0.8567 0.4455 0.2599
vn -0.8910 0.4455 0.0878
vn -0.8910 0.4455 -0.0878
vn -0.8567 0.4455 -0.2599
vn -0.7896 0.4455 -0.4220
vn -0.6921 0.4455 -0.5680
vn -0.5680 0.4455 -0.6921
vn -0.4220 0.4455 -0.7896
vn 0.0000 -1.0000 0.0000
vn -0.2599 0.4455 -0.8567
vn -0.0878 0.4455 -0.8910
usemtl None
s off
f 98/196/98 130/197/98 99/198/98
f 99/198/99 130/197/99 100/199/99
f 100/199/100 130/197/100 101/200/100
f 101/200/101 130/197/101 102/201/101
f 102/201/102 130/197/102 103/202/102
f 103/202/103 130/197/103 104/203/103
f 104/203/104 130/197/104 105/204/104
f 105/204/105 130/197/105 106/205/105
f 106/205/106 130/197/106 107/206/106
f 107/206/107 130/197/107 108/207/107
f 108/207/108 130/197/108 109/208/108
f 109/208/109 130/197/109 110/209/109
f 110/209/110 130/197/110 111/210/110
f 111/210/111 130/197/111 112/211/111
f 112/211/112 130/197/112 113/212/112
f 113/212/113 130/197/113 114/213/113
f 114/213/114 130/197/114 115/214/114
f 115/214/115 130/197/115 116/215/115
f 116/215/116 130/197/116 117/216/116
f 117/216/117 130/197/117 118/217/117
f 118/217/118 130/197/118 119/218/118
f 119/218/119 130/197/119 120/219/119
f 120/219/120 130/197/120 121/220/120
f 121/220/121 130/197/121 122/221/121
f 122/221/122 130/197/122 123/222/122
f 123/222/123 130/197/123 124/223/123
f 124/223/124 130/197/124 125/224/124
f 125/224/125 130/197/125 126/225/125
f 126/225/126 130/197/126 127/226/126
f 127/226/127 130/197/127 128/227/127
f 98/228/128 99/229/128 100/230/128 101/231/128 102/232/128 103/233/128 104/234/128 105/235/128 106/236/128 107/237/128 108/238/128 109/239/128 110/240/128 111/241/128 112/242/128 113/243/128 114/244/128 115/245/128 116/246/128 117/247/128 118/248/128 119/249/128 120/250/128 121/251/128 122/252/128 123/253/128 124/254/128 125/255/128 126/256/128 127/257/128 128/258/128 129/259/128
f 128/227/129 130/197/129 129/260/129
f 129/260/130 130/197/130 98/196/130
